
	<svg xmlns="http://www.w3.org/2000/svg" xmlns:xlink="http://www.w3.org/1999/xlink" version="1.1" width="256" height="256" viewBox="0 0 100 100">


		<defs>
			<linearGradient id="Gradient_2" gradientUnits="userSpaceOnUse" x1="50" y1="0" x2="50" y2="40" spreadMethod="pad">
			<stop offset="0%" stop-color="#FFFFFF" stop-opacity="0.2"/>
			<stop offset="100%" stop-color="#FFFFFF"/>
		</linearGradient><linearGradient id="Gradient_3" gradientUnits="userSpaceOnUse" x1="90" y1="53" x2="45" y2="20" spreadMethod="pad">
			<stop offset="0%" stop-color="#FFFFFF" stop-opacity="0.2"/>
			<stop offset="100%" stop-color="#FFFFFF"/>
		</linearGradient><linearGradient id="Gradient_4" gradientUnits="userSpaceOnUse" x1="10" y1="20" x2="55" y2="53" spreadMethod="pad">
			<stop offset="0%" stop-color="#FFFFFF" stop-opacity="0.2"/>
			<stop offset="100%" stop-color="#FFFFFF"/>
		</linearGradient><g id="background">
			<path fill="url(#background-gradient)" stroke="none" d=" M 96.05 30.6 Q 92.25 21.6 85.35 14.7 78.45 7.75 69.45 3.95 60.15 0 50 0 39.85 0 30.55 3.95 21.6 7.75 14.7 14.7 7.75 21.6 3.95 30.6 0 39.9 0 50 0 60.15 3.95 69.45 7.75 78.45 14.7 85.35 21.6 92.25 30.55 96.1 39.85 100 50 100 60.15 100 69.45 96.1 78.45 92.25 85.35 85.35 92.25 78.45 96.05 69.45 100 60.15 100 50 100 39.9 96.05 30.6 M 82.2 17.85 Q 88.5 24.15 91.95 32.3 95.55 40.8 95.55 50 95.55 59.25 91.95 67.75 88.5 75.9 82.2 82.2 75.85 88.5 67.75 91.95 59.25 95.55 50 95.55 40.8 95.55 32.3 91.95 24.15 88.5 17.85 82.2 11.55 75.9 8.1 67.75 4.5 59.25 4.5 50 4.5 40.8 8.1 32.3 11.5 24.15 17.85 17.85 24.15 11.55 32.3 8.1 40.8 4.5 50 4.5 59.25 4.5 67.75 8.1 75.85 11.55 82.2 17.85 Z"/>
		</g><mask id="mask">
			<path fill="#FFFFFF" stroke="none" d=" M 91.95 32.3 Q 88.5 24.15 82.2 17.85 75.85 11.55 67.75 8.1 59.25 4.5 50 4.5 40.8 4.5 32.3 8.1 24.15 11.55 17.85 17.85 11.5 24.15 8.1 32.3 4.5 40.8 4.5 50 4.5 59.25 8.1 67.75 11.55 75.9 17.85 82.2 24.15 88.5 32.3 91.95 40.8 95.55 50 95.55 59.25 95.55 67.75 91.95 75.85 88.5 82.2 82.2 88.5 75.9 91.95 67.75 95.55 59.25 95.55 50 95.55 40.8 91.95 32.3 Z"/>
		</mask><g id="gloss-top">
			<path fill="url(#Gradient_2)" stroke="none" d=" M 99.5 42.75 Q 98.15 33.8 93.8 25.85 89.55 18.15 82.85 12.35 76.15 6.5 67.85 3.3 59.25 0 50 0 40.8 0 32.2 3.3 23.9 6.5 17.2 12.35 10.5 18.15 6.2 25.85 1.85 33.8 0.55 42.75 2.35 45.75 4.55 48.5 4.8 39.45 8.5 31.35 12.05 23.4 18.35 17.35 24.6 11.25 32.65 7.95 41 4.5 50 4.5 59.05 4.5 67.4 7.95 75.4 11.25 81.65 17.35 87.95 23.4 91.5 31.35 95.2 39.45 95.5 48.5 97.65 45.75 99.5 42.75 Z"/>
		</g><g id="gloss-right">
			<path fill="url(#Gradient_3)" stroke="none" d=" M 96 30.6 Q 92.2 21.6 85.25 14.7 78.3 7.75 69.4 3.95 60.1 0 49.9 0 37.45 0 26.5 5.85 15.9 11.5 9 21.35 L 12.5 24.2 Q 18.8 15.1 28.5 9.9 38.5 4.5 49.9 4.5 59.2 4.5 67.6 8.1 75.8 11.55 82.1 17.85 88.4 24.15 91.9 32.3 95.45 40.8 95.45 50 95.45 58.65 92.3 66.65 89.25 74.4 83.65 80.55 L 87.15 83.35 Q 93.25 76.55 96.5 68.15 99.9 59.45 99.9 50 99.9 39.9 96 30.6 Z"/>
		</g><g id="gloss-left">
			<path fill="url(#Gradient_4)" stroke="none" d=" M 87.45 24.2 L 91 21.35 Q 84.05 11.5 73.5 5.85 62.5 0 50 0 39.85 0 30.55 3.95 21.6 7.75 14.7 14.7 7.75 21.6 3.95 30.6 0 39.9 0 50 0 59.45 3.4 68.15 6.7 76.55 12.75 83.35 L 16.3 80.55 Q 10.65 74.4 7.65 66.65 4.5 58.65 4.5 50 4.5 40.8 8.1 32.3 11.5 24.15 17.85 17.85 24.15 11.55 32.3 8.1 40.8 4.5 50 4.5 61.45 4.5 71.45 9.9 81.15 15.1 87.45 24.2 Z"/>
		</g>
			
	<linearGradient id="background-gradient" x1="0" y1="0" y2="1" x2="0" >
		<stop stop-color="#cc2b5e" offset="0%"/>
		<stop stop-color="#753a88" offset="100%"/>
	</linearGradient>

			
			
			<g transform="scale(2.0833331677648887) translate(0.000001430511474609375 0)" id="picture"><path d="M37.5 17.3s-.7 7.8-4.5 11C32.5 23.2 36.1 6 21 0c0 9.6.2 16.3-4.5 22.1.4-3.5-.8-9.1-7.4-11.1.1 9.2-4.6 12.3-4.6 19 0 7.5 3.8 14.1 9.6 17.6-1.8-2.4-2.7-5.6-2.4-8.8.3-4.2 3.4-5.9 3.9-11.6 4 1.6 4.5 5.2 4 7.4C22.8 31.1 23 27 23.5 21c9.1 4.6 6 15.1 6 18.4 2.5-1.8 3.4-6.6 3.4-6.6 2.4 1.6 3.3 5.3 3.1 8.2-.2 2.7-1.2 5.1-2.7 7 6.1-3.5 10.2-10.2 10.2-18 0-4.7-2-10.5-6-12.7z"/></g>
			
	<linearGradient id="picture-gradient" x1="0" y1="0" y2="1" x2="0" >
		<stop stop-color="#cc2b5e" offset="0%"/>
		<stop stop-color="#753a88" offset="100%"/>
	</linearGradient>

		</defs>

		

			<use xlink:href="#background" fill="url(#background-gradient)" />

		

			<g mask="url(#mask)">
				<g transform="
				        translate(
                                50 50
)
                            translate(0 0)  scale(0.66)  
                            translate(
                                -50 -50
)">
						<use xlink:href="#picture" fill="url(#picture-gradient)"  />
				</g>
			</g>

		

			<use xlink:href="#gloss-top" opacity="1" />


	</svg>
